<?xml version="1.0" encoding="UTF-8"?>
<svg id="Calque_1" data-name="Calque 1" xmlns="http://www.w3.org/2000/svg" xmlns:xlink="http://www.w3.org/1999/xlink" viewBox="0 0 829.34 208.29">
  <defs>
    <style>
      .cls-1 {
        fill: url(#Dégradé_sans_nom_3-10);
      }

      .cls-2 {
        fill: url(#Dégradé_sans_nom_3-12);
      }

      .cls-3 {
        fill: url(#Dégradé_sans_nom_3-6);
      }

      .cls-4 {
        fill: url(#Dégradé_sans_nom_3-5);
      }

      .cls-5 {
        fill: url(#Dégradé_sans_nom_3-11);
      }

      .cls-6 {
        fill: #1ee5f8;
      }

      .cls-7 {
        fill: url(#Dégradé_sans_nom_3-9);
      }

      .cls-8 {
        fill: #fff;
      }

      .cls-9 {
        fill: url(#Dégradé_sans_nom_3-3);
      }

      .cls-10 {
        fill: url(#Dégradé_sans_nom_3-4);
      }

      .cls-11 {
        fill: url(#Dégradé_sans_nom_3-8);
      }

      .cls-12 {
        fill: url(#Dégradé_sans_nom_3-2);
      }

      .cls-13 {
        fill: url(#Dégradé_sans_nom_3-7);
      }

      .cls-14 {
        fill: url(#Dégradé_sans_nom_3);
      }
    </style>
    <linearGradient id="Dégradé_sans_nom_3" data-name="Dégradé sans nom 3" x1="103.69" y1="157.65" x2="60.38" y2="67.86" gradientUnits="userSpaceOnUse">
      <stop offset="0" stop-color="#257df9"/>
      <stop offset="1" stop-color="#1ee5f8"/>
    </linearGradient>
    <linearGradient id="Dégradé_sans_nom_3-2" data-name="Dégradé sans nom 3" x1="111.12" y1="154.07" x2="67.81" y2="64.28" xlink:href="#Dégradé_sans_nom_3"/>
    <linearGradient id="Dégradé_sans_nom_3-3" data-name="Dégradé sans nom 3" x1="97.4" y1="160.69" x2="54.09" y2="70.9" xlink:href="#Dégradé_sans_nom_3"/>
    <linearGradient id="Dégradé_sans_nom_3-4" data-name="Dégradé sans nom 3" x1="72.69" y1="172.61" x2="29.38" y2="82.82" xlink:href="#Dégradé_sans_nom_3"/>
    <linearGradient id="Dégradé_sans_nom_3-5" data-name="Dégradé sans nom 3" x1="141.91" y1="139.21" x2="98.6" y2="49.42" xlink:href="#Dégradé_sans_nom_3"/>
    <linearGradient id="Dégradé_sans_nom_3-6" data-name="Dégradé sans nom 3" x1="69.81" y1="173.99" x2="26.5" y2="84.21" xlink:href="#Dégradé_sans_nom_3"/>
    <linearGradient id="Dégradé_sans_nom_3-7" data-name="Dégradé sans nom 3" x1="94.33" y1="162.17" x2="51.02" y2="72.38" xlink:href="#Dégradé_sans_nom_3"/>
    <linearGradient id="Dégradé_sans_nom_3-8" data-name="Dégradé sans nom 3" x1="141.32" y1="139.5" x2="98.01" y2="49.71" xlink:href="#Dégradé_sans_nom_3"/>
    <linearGradient id="Dégradé_sans_nom_3-9" data-name="Dégradé sans nom 3" x1="87.16" y1="165.62" x2="43.85" y2="75.84" xlink:href="#Dégradé_sans_nom_3"/>
    <linearGradient id="Dégradé_sans_nom_3-10" data-name="Dégradé sans nom 3" x1="128.22" y1="145.82" x2="84.91" y2="56.03" xlink:href="#Dégradé_sans_nom_3"/>
    <linearGradient id="Dégradé_sans_nom_3-11" data-name="Dégradé sans nom 3" x1="147.58" y1="136.48" x2="104.27" y2="46.69" xlink:href="#Dégradé_sans_nom_3"/>
    <linearGradient id="Dégradé_sans_nom_3-12" data-name="Dégradé sans nom 3" x1="139.01" y1="140.62" x2="95.69" y2="50.83" xlink:href="#Dégradé_sans_nom_3"/>
  </defs>
  <g>
    <path class="cls-8" d="M463.5,84.86c6.6,0,12.1,2.27,16.52,6.81,4.41,4.54,6.62,10.81,6.62,18.81v37.99h-18.56v-35.26c0-3.63-1.01-6.41-3.03-8.35-2.02-1.94-4.6-2.91-7.73-2.91-3.55,0-6.35,1.07-8.41,3.22-2.06,2.15-3.09,5.32-3.09,9.53v33.78h-18.56v-61.87h18.56v5.82c3.71-5.03,9.61-7.55,17.69-7.55Z"/>
    <path class="cls-8" d="M583,97.6c1.15-3.96,3.48-6.99,6.99-9.09,3.51-2.1,7.36-3.16,11.57-3.16v21.03c-4.54-.74-8.77.02-12.68,2.29-3.92,2.27-5.88,6.21-5.88,11.82v27.96h-18.56v-61.87h18.56v11.01Z"/>
    <path class="cls-8" d="M653.77,86.59h18.06v58.77c0,9.73-3.18,17.09-9.53,22.09-6.35,4.99-14.06,7.49-23.14,7.49-13.94,0-23.72-4.99-29.32-14.97l15.84-9.16c2.8,5.2,7.5,7.8,14.11,7.8,4.37,0,7.79-1.13,10.27-3.4,2.47-2.27,3.71-5.55,3.71-9.84v-5.69c-4.29,5.36-10.31,8.04-18.06,8.04-8.66,0-15.9-3.07-21.72-9.22-5.81-6.14-8.72-13.55-8.72-22.21s2.91-16.06,8.72-22.21c5.82-6.14,13.05-9.22,21.72-9.22,7.75,0,13.77,2.68,18.06,8.04v-6.31ZM628.04,126.68c2.8,2.64,6.39,3.96,10.76,3.96s7.96-1.32,10.76-3.96c2.8-2.64,4.21-6.1,4.21-10.39s-1.4-7.75-4.21-10.39c-2.8-2.64-6.39-3.96-10.76-3.96s-7.96,1.32-10.76,3.96c-2.81,2.64-4.21,6.11-4.21,10.39s1.4,7.75,4.21,10.39Z"/>
    <path class="cls-8" d="M702.58,77.86c-2.19,2.19-4.81,3.28-7.86,3.28s-5.67-1.09-7.86-3.28c-2.19-2.18-3.28-4.8-3.28-7.86s1.09-5.67,3.28-7.86c2.18-2.18,4.8-3.28,7.86-3.28s5.67,1.09,7.86,3.28c2.18,2.19,3.28,4.81,3.28,7.86s-1.09,5.67-3.28,7.86ZM685.44,148.45v-61.87h18.56v61.87h-18.56Z"/>
    <path class="cls-8" d="M798.9,104.65c0,1.24,1.05,2.25,3.15,3.03,2.1.78,4.64,1.57,7.61,2.35,2.97.79,5.94,1.79,8.91,3.03,2.97,1.24,5.51,3.28,7.61,6.12,2.1,2.85,3.15,6.41,3.15,10.7,0,6.68-2.47,11.74-7.42,15.16-4.95,3.42-11.05,5.13-18.31,5.13-13.03,0-21.9-4.91-26.6-14.72l16.08-9.16c1.65,4.87,5.15,7.3,10.52,7.3,4.45,0,6.68-1.28,6.68-3.84,0-1.24-1.05-2.27-3.15-3.09-2.1-.82-4.64-1.63-7.61-2.41-2.97-.78-5.94-1.81-8.91-3.09-2.97-1.28-5.51-3.28-7.61-6-2.1-2.72-3.15-6.06-3.15-10.02,0-6.43,2.33-11.42,6.99-14.97,4.66-3.55,10.41-5.32,17.26-5.32,5.11,0,9.78,1.13,13.98,3.4,4.21,2.27,7.59,5.55,10.14,9.84l-15.84,8.54c-1.98-3.63-4.74-5.44-8.29-5.44s-5.2,1.16-5.2,3.46Z"/>
    <path class="cls-8" d="M540.92,127.27c-5.27,5.01-10.6,6.3-16,3.84l22.21-22.35v-18.06c-5.63-4.27-11.92-6.47-18.86-6.59-8.63-.15-16.12,2.97-22.46,9.34-6.8,6.85-10.16,14.64-10.08,23.39.09,8.75,3.43,16.41,10.04,22.98,6.67,6.63,14.39,9.92,23.17,9.86,8.48-.05,16.28-3.53,23.41-10.42l-11.44-12.01ZM517.4,105.15c4.89-4.91,10.28-5.72,16.18-2.41l-18.75,18.87c-3.34-5.88-2.48-11.37,2.57-16.46Z"/>
    <path class="cls-8" d="M761.09,127.27c-5.27,5.01-10.6,6.3-16,3.84l22.21-22.35v-18.06c-5.63-4.27-11.92-6.47-18.86-6.59-8.63-.15-16.12,2.97-22.46,9.34-6.8,6.85-10.16,14.64-10.08,23.39.09,8.75,3.43,16.41,10.04,22.98,6.67,6.63,14.39,9.92,23.17,9.86,8.48-.05,16.28-3.53,23.41-10.42l-11.44-12.01ZM737.57,105.15c4.89-4.91,10.28-5.72,16.18-2.41l-18.75,18.87c-3.34-5.88-2.48-11.37,2.57-16.46Z"/>
    <path class="cls-8" d="M405.04,127.27c-5.27,5.01-10.6,6.3-16,3.84l22.21-22.35v-18.06c-5.63-4.27-11.92-6.47-18.86-6.59-8.63-.15-16.12,2.97-22.46,9.34-6.8,6.85-10.16,14.64-10.08,23.39.09,8.75,3.43,16.41,10.04,22.98,6.67,6.63,14.39,9.92,23.17,9.86,8.48-.05,16.28-3.53,23.41-10.42l-11.44-12.01ZM381.52,105.15c4.89-4.91,10.28-5.72,16.18-2.41l-18.75,18.87c-3.34-5.88-2.48-11.37,2.57-16.46Z"/>
    <path class="cls-8" d="M322.79,127.27c-5.27,5.01-10.6,6.3-16,3.84l22.21-22.35v-18.06c-5.63-4.27-11.92-6.47-18.86-6.59-8.63-.15-16.12,2.97-22.46,9.34-6.8,6.85-10.16,14.64-10.08,23.39.09,8.75,3.43,16.41,10.04,22.98,6.67,6.63,14.39,9.92,23.17,9.86,8.48-.05,16.28-3.53,23.41-10.42l-11.44-12.01ZM299.27,105.15c4.89-4.91,10.28-5.72,16.18-2.41l-18.75,18.87c-3.34-5.88-2.48-11.37,2.57-16.46Z"/>
    <path class="cls-8" d="M259.54,103.54c7.09,4.54,10.64,11.05,10.64,19.55,0,7.51-2.68,13.61-8.04,18.31-5.36,4.7-12,7.05-19.92,7.05h-36.38V61.84h33.9c7.75,0,14.25,2.29,19.49,6.87,5.24,4.58,7.86,10.54,7.86,17.88,0,6.93-2.52,12.58-7.55,16.95ZM239.74,80.4h-14.11v15.34h14.11c2.23,0,4.04-.72,5.44-2.17,1.4-1.44,2.1-3.28,2.1-5.51s-.7-4.06-2.1-5.51c-1.4-1.44-3.22-2.17-5.44-2.17ZM242.22,129.89c2.47,0,4.45-.76,5.94-2.29,1.48-1.53,2.23-3.53,2.23-6s-.74-4.47-2.23-6c-1.49-1.53-3.46-2.29-5.94-2.29h-16.58v16.58h16.58Z"/>
    <path class="cls-8" d="M361.49,61.84l-8.66,32.17h-11.14l4.95-32.17h14.85Z"/>
  </g>
  <g>
    <path class="cls-14" d="M92.44,117.13c.73-1.14,1.69-2.11,2.81-2.87l-7.24-27.55c-1.36-.1-2.64-.47-3.79-1.06l-22.73,21.95c.29.7.49,1.44.6,2.21l30.36,7.31Z"/>
    <path class="cls-12" d="M80.22,71.51c.61-.99,1.38-1.86,2.28-2.59l-5.73-16.06c-8.63,2.41-16.39,6.88-22.71,12.87l26.17,5.78Z"/>
    <path class="cls-9" d="M56.95,102.92l22.73-21.95c-.45-.96-.74-1.99-.87-3.08l-29.88-6.6c-3.65,4.56-6.6,9.72-8.64,15.31l10.89,15.76c.66-.15,1.34-.24,2.05-.24,1.33,0,2.59.29,3.72.81Z"/>
    <path class="cls-10" d="M45.81,106.05l-7.79-11.27c-.66,3.39-1.02,6.88-1.02,10.46,0,1.58.08,3.14.21,4.69l7.32-1c.25-1.04.69-2.02,1.27-2.88Z"/>
    <path class="cls-4" d="M142.16,124.81c2.34-6.07,3.64-12.67,3.64-19.57,0-1.24-.06-2.46-.14-3.68l-34.64,19.03,31.13,4.22Z"/>
    <path class="cls-3" d="M48.84,118.83c-1.43-.81-2.62-2-3.42-3.43l-7.26.99c1.48,7.1,4.34,13.69,8.29,19.48l2.39-17.04Z"/>
    <path class="cls-13" d="M100.46,132.42c-1.53-.05-2.96-.44-4.24-1.1l-25.58,24.21c6.4,2.64,13.41,4.11,20.76,4.11,5.84,0,11.46-.93,16.73-2.63l-7.68-24.59Z"/>
    <path class="cls-11" d="M107.43,115.13l37.33-20.51c-.61-3.06-1.48-6.03-2.57-8.88l-44.37-4.75c-.78,1.65-1.99,3.06-3.5,4.07l7.25,27.55c2.25.17,4.29,1.09,5.87,2.52Z"/>
    <path class="cls-7" d="M91.74,126.57c-.3-.66-.53-1.37-.68-2.1l-.51-.07.46-.25c-.04-.22-.07-.45-.09-.68l-30.35-7.31c-1.24,1.76-3.09,3.06-5.25,3.58l-3.23,23.05c3.61,3.78,7.76,7.04,12.33,9.66l27.34-25.88Z"/>
    <path class="cls-1" d="M109.63,126.99c-.7,1.38-1.71,2.57-2.94,3.48l7.54,24.14c10.7-4.95,19.52-13.27,25.09-23.61l-29.68-4.02Z"/>
    <path class="cls-5" d="M98.3,73.72c.08.26.15.52.21.78l40.45,4.33c-4.72-8.47-11.63-15.54-19.97-20.46l-20.69,15.35Z"/>
    <path class="cls-2" d="M88.64,66.73s.07,0,.11,0c2.1,0,4.05.65,5.66,1.75l18.06-13.4c-6.48-2.72-13.59-4.23-21.06-4.23-2.79,0-5.53.21-8.21.62l5.45,15.26Z"/>
  </g>
  <path class="cls-8" d="M105.26,28.32c-28.25,0-52.94,15.23-66.32,37.93,11.91-16,30.98-26.37,52.46-26.37,36.1,0,65.36,29.26,65.36,65.36s-29.26,65.36-65.36,65.36c-21.48,0-40.55-10.37-52.46-26.37,13.37,22.7,38.06,37.93,66.32,37.93,42.48,0,76.92-34.44,76.92-76.92S147.74,28.32,105.26,28.32Z"/>
  <path class="cls-6" d="M104.15,23.04c-1.86,0-3.36-1.51-3.36-3.36V3.36c0-1.86,1.51-3.36,3.36-3.36s3.36,1.51,3.36,3.36v16.31c0,1.86-1.51,3.36-3.36,3.36Z"/>
  <path class="cls-6" d="M104.15,208.29c-1.86,0-3.36-1.51-3.36-3.36v-16.31c0-1.86,1.51-3.36,3.36-3.36s3.36,1.51,3.36,3.36v16.31c0,1.86-1.51,3.36-3.36,3.36Z"/>
  <path class="cls-6" d="M19.68,107.51H3.36c-1.86,0-3.36-1.51-3.36-3.36s1.51-3.36,3.36-3.36h16.31c1.86,0,3.36,1.51,3.36,3.36s-1.51,3.36-3.36,3.36Z"/>
  <path class="cls-6" d="M44.42,47.78c-.86,0-1.72-.33-2.38-.98l-11.54-11.54c-1.31-1.31-1.31-3.44,0-4.75,1.31-1.31,3.44-1.31,4.75,0l11.54,11.54c1.31,1.31,1.31,3.44,0,4.75-.66.66-1.52.98-2.38.98Z"/>
  <path class="cls-6" d="M175.41,178.77c-.86,0-1.72-.33-2.38-.99l-11.54-11.54c-1.31-1.31-1.31-3.44,0-4.75,1.31-1.31,3.44-1.31,4.75,0l11.54,11.54c1.31,1.31,1.31,3.44,0,4.75-.66.66-1.52.99-2.38.99Z"/>
  <path class="cls-6" d="M163.88,47.78c-.86,0-1.72-.33-2.38-.98-1.31-1.31-1.31-3.44,0-4.75l11.54-11.54c1.31-1.31,3.44-1.31,4.75,0,1.31,1.31,1.31,3.44,0,4.75l-11.54,11.54c-.66.66-1.52.98-2.38.98Z"/>
  <path class="cls-6" d="M32.88,178.77c-.86,0-1.72-.33-2.38-.99-1.31-1.31-1.31-3.44,0-4.75l11.54-11.54c1.31-1.31,3.44-1.31,4.75,0,1.31,1.31,1.31,3.44,0,4.75l-11.54,11.54c-.66.66-1.52.99-2.38.99Z"/>
</svg>