<?xml version="1.0" encoding="UTF-8"?>
<svg id="Calque_1" data-name="Calque 1" xmlns="http://www.w3.org/2000/svg" xmlns:xlink="http://www.w3.org/1999/xlink" viewBox="0 0 615.68 456.97">
  <defs>
    <style>
      .cls-1 {
        fill: url(#Dégradé_sans_nom_3-10);
      }

      .cls-2 {
        fill: url(#Dégradé_sans_nom_3-12);
      }

      .cls-3 {
        fill: url(#Dégradé_sans_nom_3-6);
      }

      .cls-4 {
        fill: url(#Dégradé_sans_nom_3-5);
      }

      .cls-5 {
        fill: url(#Dégradé_sans_nom_3-11);
      }

      .cls-6 {
        fill: #1ee5f8;
      }

      .cls-7 {
        fill: url(#Dégradé_sans_nom_3-9);
      }

      .cls-8 {
        fill: #fff;
      }

      .cls-9 {
        fill: url(#Dégradé_sans_nom_3-3);
      }

      .cls-10 {
        fill: url(#Dégradé_sans_nom_3-4);
      }

      .cls-11 {
        fill: url(#Dégradé_sans_nom_3-8);
      }

      .cls-12 {
        fill: url(#Dégradé_sans_nom_3-2);
      }

      .cls-13 {
        fill: url(#Dégradé_sans_nom_3-7);
      }

      .cls-14 {
        fill: url(#Dégradé_sans_nom_3);
      }
    </style>
    <linearGradient id="Dégradé_sans_nom_3" data-name="Dégradé sans nom 3" x1="325.26" y1="215.66" x2="254.61" y2="131.86" gradientUnits="userSpaceOnUse">
      <stop offset="0" stop-color="#257df9"/>
      <stop offset="1" stop-color="#1ee5f8"/>
    </linearGradient>
    <linearGradient id="Dégradé_sans_nom_3-2" data-name="Dégradé sans nom 3" x1="345.19" y1="198.85" x2="274.54" y2="115.05" xlink:href="#Dégradé_sans_nom_3"/>
    <linearGradient id="Dégradé_sans_nom_3-3" data-name="Dégradé sans nom 3" x1="322.54" y1="217.95" x2="251.89" y2="134.16" xlink:href="#Dégradé_sans_nom_3"/>
    <linearGradient id="Dégradé_sans_nom_3-4" data-name="Dégradé sans nom 3" x1="290.18" y1="245.23" x2="219.53" y2="161.43" xlink:href="#Dégradé_sans_nom_3"/>
    <linearGradient id="Dégradé_sans_nom_3-5" data-name="Dégradé sans nom 3" x1="361.74" y1="184.9" x2="291.09" y2="101.11" xlink:href="#Dégradé_sans_nom_3"/>
    <linearGradient id="Dégradé_sans_nom_3-6" data-name="Dégradé sans nom 3" x1="280.7" y1="253.23" x2="210.05" y2="169.43" xlink:href="#Dégradé_sans_nom_3"/>
    <linearGradient id="Dégradé_sans_nom_3-7" data-name="Dégradé sans nom 3" x1="301.21" y1="235.94" x2="230.56" y2="152.14" xlink:href="#Dégradé_sans_nom_3"/>
    <linearGradient id="Dégradé_sans_nom_3-8" data-name="Dégradé sans nom 3" x1="364.79" y1="182.32" x2="294.14" y2="98.53" xlink:href="#Dégradé_sans_nom_3"/>
    <linearGradient id="Dégradé_sans_nom_3-9" data-name="Dégradé sans nom 3" x1="296.98" y1="239.5" x2="226.33" y2="155.71" xlink:href="#Dégradé_sans_nom_3"/>
    <linearGradient id="Dégradé_sans_nom_3-10" data-name="Dégradé sans nom 3" x1="337.42" y1="205.4" x2="266.77" y2="121.61" xlink:href="#Dégradé_sans_nom_3"/>
    <linearGradient id="Dégradé_sans_nom_3-11" data-name="Dégradé sans nom 3" x1="378.95" y1="170.38" x2="308.3" y2="86.59" xlink:href="#Dégradé_sans_nom_3"/>
    <linearGradient id="Dégradé_sans_nom_3-12" data-name="Dégradé sans nom 3" x1="374.19" y1="174.4" x2="303.54" y2="90.6" xlink:href="#Dégradé_sans_nom_3"/>
  </defs>
  <g>
    <path class="cls-8" d="M254.43,327.95c6.52,0,11.95,2.24,16.31,6.72,4.36,4.48,6.54,10.67,6.54,18.57v37.51h-18.33v-34.82c0-3.58-1-6.33-2.99-8.25-2-1.91-4.54-2.87-7.64-2.87-3.5,0-6.27,1.06-8.31,3.18-2.04,2.12-3.05,5.25-3.05,9.41v33.35h-18.33v-61.09h18.33v5.74c3.67-4.97,9.49-7.45,17.47-7.45Z"/>
    <path class="cls-8" d="M372.42,340.54c1.14-3.91,3.44-6.9,6.9-8.98,3.46-2.08,7.27-3.12,11.42-3.12v20.77c-4.48-.73-8.66.02-12.52,2.26-3.87,2.24-5.8,6.13-5.8,11.67v27.61h-18.33v-61.09h18.33v10.87Z"/>
    <path class="cls-8" d="M442.31,329.66h17.84v58.03c0,9.61-3.14,16.88-9.41,21.81-6.27,4.93-13.89,7.39-22.85,7.39-13.77,0-23.42-4.93-28.96-14.78l15.64-9.04c2.77,5.13,7.41,7.7,13.93,7.7,4.32,0,7.7-1.12,10.14-3.36,2.44-2.24,3.67-5.48,3.67-9.71v-5.62c-4.24,5.3-10.18,7.94-17.84,7.94-8.55,0-15.7-3.03-21.44-9.1-5.74-6.07-8.61-13.38-8.61-21.93s2.87-15.86,8.61-21.93c5.74-6.07,12.89-9.1,21.44-9.1,7.66,0,13.6,2.65,17.84,7.94v-6.23ZM416.9,369.25c2.77,2.61,6.31,3.91,10.63,3.91s7.86-1.3,10.63-3.91c2.77-2.61,4.15-6.03,4.15-10.26s-1.39-7.66-4.15-10.26c-2.77-2.61-6.31-3.91-10.63-3.91s-7.86,1.3-10.63,3.91c-2.77,2.61-4.15,6.03-4.15,10.26s1.38,7.66,4.15,10.26Z"/>
    <path class="cls-8" d="M490.51,321.05c-2.16,2.16-4.75,3.24-7.76,3.24s-5.6-1.08-7.76-3.24c-2.16-2.16-3.24-4.74-3.24-7.76s1.08-5.6,3.24-7.76c2.16-2.16,4.74-3.24,7.76-3.24s5.6,1.08,7.76,3.24c2.16,2.16,3.24,4.75,3.24,7.76s-1.08,5.6-3.24,7.76ZM473.59,390.75v-61.09h18.33v61.09h-18.33Z"/>
    <path class="cls-8" d="M585.62,347.5c0,1.22,1.04,2.22,3.12,2.99,2.08.77,4.58,1.55,7.51,2.32,2.93.78,5.87,1.77,8.8,2.99,2.93,1.22,5.44,3.24,7.51,6.05,2.08,2.81,3.12,6.33,3.12,10.57,0,6.6-2.44,11.59-7.33,14.97-4.89,3.38-10.92,5.07-18.08,5.07-12.87,0-21.63-4.85-26.27-14.54l15.88-9.04c1.63,4.81,5.09,7.21,10.39,7.21,4.4,0,6.6-1.26,6.6-3.79,0-1.22-1.04-2.24-3.12-3.05-2.08-.81-4.58-1.61-7.51-2.38-2.93-.77-5.87-1.79-8.8-3.05-2.93-1.26-5.44-3.24-7.51-5.93-2.08-2.69-3.12-5.99-3.12-9.9,0-6.35,2.3-11.28,6.9-14.78,4.6-3.5,10.28-5.25,17.04-5.25,5.05,0,9.65,1.12,13.81,3.36,4.15,2.24,7.49,5.48,10.02,9.71l-15.64,8.43c-1.95-3.58-4.68-5.38-8.19-5.38s-5.13,1.14-5.13,3.42Z"/>
    <path class="cls-8" d="M330.88,369.84c-5.2,4.95-10.47,6.22-15.8,3.8l21.93-22.07v-17.83c-5.56-4.21-11.77-6.39-18.62-6.5-8.52-.15-15.92,2.93-22.17,9.23-6.72,6.76-10.04,14.46-9.95,23.1.08,8.64,3.39,16.2,9.92,22.69,6.59,6.55,14.21,9.79,22.88,9.74,8.37-.05,16.08-3.49,23.12-10.29l-11.3-11.85ZM307.65,348c4.82-4.85,10.15-5.65,15.98-2.38l-18.52,18.63c-3.3-5.8-2.45-11.22,2.54-16.25Z"/>
    <path class="cls-8" d="M548.28,369.84c-5.2,4.95-10.47,6.22-15.8,3.8l21.93-22.07v-17.83c-5.56-4.21-11.77-6.39-18.62-6.5-8.52-.15-15.92,2.93-22.17,9.23-6.72,6.76-10.04,14.46-9.95,23.1.08,8.64,3.39,16.2,9.92,22.69,6.59,6.55,14.21,9.79,22.88,9.74,8.37-.05,16.08-3.49,23.12-10.29l-11.3-11.85ZM525.05,348c4.82-4.85,10.15-5.65,15.98-2.38l-18.52,18.63c-3.3-5.8-2.45-11.22,2.54-16.25Z"/>
    <path class="cls-8" d="M196.7,369.84c-5.2,4.95-10.47,6.22-15.8,3.8l21.93-22.07v-17.83c-5.56-4.21-11.77-6.39-18.62-6.5-8.52-.15-15.92,2.93-22.17,9.23-6.72,6.76-10.04,14.46-9.95,23.1.08,8.64,3.39,16.2,9.92,22.69,6.59,6.55,14.21,9.79,22.88,9.74,8.37-.05,16.08-3.49,23.12-10.29l-11.3-11.85ZM173.47,348c4.82-4.85,10.15-5.65,15.98-2.38l-18.52,18.63c-3.3-5.8-2.45-11.22,2.54-16.25Z"/>
    <path class="cls-8" d="M115.48,369.84c-5.2,4.95-10.47,6.22-15.8,3.8l21.93-22.07v-17.83c-5.56-4.21-11.77-6.39-18.62-6.5-8.52-.15-15.92,2.93-22.17,9.23-6.72,6.76-10.04,14.46-9.95,23.1.08,8.64,3.39,16.2,9.92,22.69,6.59,6.55,14.21,9.79,22.88,9.74,8.37-.05,16.08-3.49,23.12-10.29l-11.3-11.85ZM92.25,348c4.82-4.85,10.15-5.65,15.98-2.38l-18.52,18.63c-3.3-5.8-2.45-11.22,2.54-16.25Z"/>
    <path class="cls-8" d="M53.03,346.4c7,4.48,10.51,10.92,10.51,19.3,0,7.41-2.65,13.44-7.94,18.08-5.3,4.64-11.85,6.96-19.67,6.96H0v-85.52h33.48c7.66,0,14.07,2.26,19.24,6.78,5.17,4.52,7.76,10.41,7.76,17.65,0,6.84-2.49,12.42-7.45,16.74ZM33.48,323.55h-13.93v15.15h13.93c2.2,0,3.99-.71,5.38-2.14,1.38-1.42,2.08-3.24,2.08-5.44s-.69-4.01-2.08-5.44c-1.39-1.42-3.18-2.14-5.38-2.14ZM35.92,372.42c2.44,0,4.4-.75,5.86-2.26,1.47-1.51,2.2-3.48,2.2-5.93s-.73-4.42-2.2-5.93c-1.47-1.51-3.42-2.26-5.86-2.26h-16.37v16.37h16.37Z"/>
    <path class="cls-8" d="M153.7,305.23l-8.55,31.77h-11l4.89-31.77h14.66Z"/>
  </g>
  <g>
    <path class="cls-14" d="M290.65,172.01c1.08-1.67,2.48-3.11,4.12-4.21l-10.64-40.46c-1.99-.15-3.87-.69-5.57-1.55l-33.38,32.24c.43,1.02.73,2.12.88,3.25l44.58,10.74Z"/>
    <path class="cls-12" d="M272.7,105.01c.89-1.45,2.03-2.74,3.35-3.8l-8.42-23.59c-12.67,3.53-24.06,10.11-33.36,18.89l38.42,8.49Z"/>
    <path class="cls-9" d="M238.53,151.13l33.38-32.24c-.65-1.4-1.09-2.93-1.28-4.53l-43.87-9.69c-5.36,6.7-9.69,14.27-12.68,22.48l15.99,23.14c.97-.23,1.97-.35,3.01-.35,1.95,0,3.8.43,5.46,1.19Z"/>
    <path class="cls-10" d="M222.18,155.73l-11.43-16.55c-.97,4.97-1.49,10.11-1.49,15.37,0,2.32.12,4.61.31,6.88l10.74-1.46c.37-1.53,1.01-2.96,1.87-4.24Z"/>
    <path class="cls-4" d="M363.66,183.28c3.44-8.92,5.35-18.6,5.35-28.73,0-1.82-.08-3.62-.2-5.41l-50.86,27.95,45.72,6.19Z"/>
    <path class="cls-3" d="M226.62,174.51c-2.1-1.19-3.84-2.93-5.02-5.04l-10.67,1.45c2.17,10.43,6.38,20.11,12.18,28.61l3.51-25.02Z"/>
    <path class="cls-13" d="M302.43,194.45c-2.24-.07-4.35-.65-6.23-1.62l-37.56,35.56c9.4,3.88,19.69,6.04,30.48,6.04,8.58,0,16.83-1.37,24.57-3.87l-11.27-36.11Z"/>
    <path class="cls-11" d="M312.66,169.06l54.81-30.12c-.89-4.5-2.17-8.85-3.78-13.04l-65.15-6.98c-1.14,2.43-2.93,4.5-5.14,5.98l10.64,40.46c3.3.25,6.3,1.61,8.62,3.7Z"/>
    <path class="cls-7" d="M289.62,185.87c-.44-.98-.78-2.01-1-3.08l-.76-.1.67-.37c-.05-.33-.1-.66-.13-.99l-44.58-10.74c-1.81,2.59-4.54,4.5-7.71,5.25l-4.75,33.85c5.31,5.56,11.4,10.35,18.11,14.19l40.14-38Z"/>
    <path class="cls-1" d="M315.9,186.48c-1.03,2.02-2.51,3.77-4.32,5.12l11.07,35.45c15.71-7.27,28.66-19.49,36.84-34.67l-43.59-5.9Z"/>
    <path class="cls-5" d="M299.25,108.25c.12.38.22.76.31,1.15l59.39,6.36c-6.93-12.44-17.07-22.83-29.32-30.05l-30.38,22.54Z"/>
    <path class="cls-2" d="M285.07,97.99c.05,0,.11,0,.16,0,3.08,0,5.94.95,8.3,2.57l26.52-19.67c-9.51-4-19.96-6.21-30.93-6.21-4.1,0-8.12.31-12.06.91l8,22.41Z"/>
  </g>
  <path class="cls-8" d="M309.47,41.59c-41.49,0-77.74,22.37-97.38,55.7,17.5-23.5,45.49-38.72,77.04-38.72,53.01,0,95.99,42.97,95.99,95.99s-42.97,95.99-95.99,95.99c-31.55,0-59.54-15.22-77.04-38.72,19.64,33.33,55.9,55.7,97.38,55.7,62.39,0,112.96-50.57,112.96-112.96s-50.57-112.96-112.96-112.96Z"/>
  <path class="cls-6" d="M307.84,33.83c-2.73,0-4.94-2.21-4.94-4.94V4.94c0-2.73,2.21-4.94,4.94-4.94s4.94,2.21,4.94,4.94v23.96c0,2.73-2.21,4.94-4.94,4.94Z"/>
  <path class="cls-6" d="M307.84,305.88c-2.73,0-4.94-2.21-4.94-4.94v-23.96c0-2.73,2.21-4.94,4.94-4.94s4.94,2.21,4.94,4.94v23.96c0,2.73-2.21,4.94-4.94,4.94Z"/>
  <path class="cls-6" d="M183.79,157.88h-23.96c-2.73,0-4.94-2.21-4.94-4.94s2.21-4.94,4.94-4.94h23.96c2.73,0,4.94,2.21,4.94,4.94s-2.21,4.94-4.94,4.94Z"/>
  <path class="cls-6" d="M455.84,157.88h-23.96c-2.73,0-4.94-2.21-4.94-4.94s2.21-4.94,4.94-4.94h23.96c2.73,0,4.94,2.21,4.94,4.94s-2.21,4.94-4.94,4.94Z"/>
  <path class="cls-6" d="M220.13,70.16c-1.26,0-2.53-.48-3.49-1.45l-16.94-16.94c-1.93-1.93-1.93-5.05,0-6.98,1.93-1.93,5.05-1.93,6.98,0l16.94,16.94c1.93,1.93,1.93,5.05,0,6.98-.96.96-2.23,1.45-3.49,1.45Z"/>
  <path class="cls-6" d="M412.49,262.53c-1.26,0-2.53-.48-3.49-1.45l-16.94-16.94c-1.93-1.93-1.93-5.05,0-6.98,1.93-1.93,5.05-1.93,6.98,0l16.94,16.94c1.93,1.93,1.93,5.05,0,6.98-.96.96-2.23,1.45-3.49,1.45Z"/>
  <path class="cls-6" d="M395.55,70.16c-1.26,0-2.53-.48-3.49-1.45-1.93-1.93-1.93-5.05,0-6.98l16.94-16.94c1.93-1.93,5.05-1.93,6.98,0,1.93,1.93,1.93,5.05,0,6.98l-16.94,16.94c-.96.96-2.23,1.45-3.49,1.45Z"/>
  <path class="cls-6" d="M203.19,262.53c-1.26,0-2.53-.48-3.49-1.45-1.93-1.93-1.93-5.05,0-6.98l16.94-16.94c1.93-1.93,5.05-1.93,6.98,0,1.93,1.93,1.93,5.05,0,6.98l-16.94,16.94c-.96.96-2.23,1.45-3.49,1.45Z"/>
  <g>
    <path class="cls-8" d="M16.93,424.57v2.97H5.53v9.16h11.4v2.97H5.53v9.16h11.4v2.97H2.11v-27.25h14.83ZM15.85,417.77l-5.93,4.53h-3.58l3.94-4.53h5.57Z"/>
    <path class="cls-8" d="M24.36,438.91v12.91h-3.43v-17.31h3.43c.58-.63,1.78-.95,3.6-.95,2.18,0,3.94.67,5.28,2.01,1.34,1.34,2.02,2.97,2.05,4.9v11.34h-3.41v-11.19c0-1.17-.4-2.15-1.19-2.93-.8-.78-1.7-1.16-2.73-1.16s-1.9.37-2.67,1.1c-.44.44-.75.87-.93,1.27Z"/>
    <path class="cls-8" d="M41.64,442.64v.06c0,1.84.62,3.39,1.87,4.64,1.25,1.25,2.73,1.88,4.43,1.88s3.17-.64,4.45-1.91c.18-.18.52-.57,1.02-1.19l3.22,1.14c-.48.81-1.04,1.52-1.67,2.14-1.92,1.93-4.26,2.9-7.03,2.9s-5.06-.95-6.96-2.85c-1.9-1.9-2.85-4.14-2.85-6.73s.95-4.87,2.85-6.76c1.9-1.89,4.22-2.84,6.96-2.84s5.11.96,7.03,2.88c1.65,1.67,2.48,3.89,2.48,6.67h-15.81ZM42.25,439.64h11.34c-.81-2.35-2.69-3.52-5.64-3.52s-4.87,1.17-5.7,3.52Z"/>
    <path class="cls-8" d="M67.95,437.09c-1.57.24-2.78.86-3.64,1.87-.86,1-1.29,2.26-1.29,3.78v9.09h-3.43v-17.31h3.43v2.46c.5-1.35,1.59-2.29,3.26-2.82l1.67,2.94Z"/>
    <path class="cls-8" d="M85.65,448.88c-1.19,2.26-3.16,3.39-5.93,3.39s-5.06-.95-6.96-2.85c-1.9-1.9-2.85-4.14-2.85-6.73s.95-4.86,2.85-6.75c1.9-1.89,4.22-2.83,6.96-2.83s4.81,1.14,6.17,3.43v-2.03h3.43v13.03c0,2.54-.92,4.71-2.75,6.53-1.92,1.93-4.25,2.9-7.01,2.9s-5.07-.94-6.95-2.82c-.43-.44-.97-1.1-1.63-1.97l3.28-1.19c.44.56.75.91.93,1.06,1.22,1.24,2.68,1.86,4.37,1.86,3.57,0,5.6-1.67,6.08-5.02ZM85.88,441.23c-.25-1.22-.85-2.31-1.78-3.26-1.23-1.24-2.68-1.86-4.37-1.86s-3.18.63-4.43,1.89c-1.25,1.26-1.87,2.82-1.87,4.68s.62,3.39,1.87,4.65c1.25,1.26,2.73,1.88,4.43,1.88s3.17-.64,4.45-1.91c.88-.88,1.45-1.93,1.7-3.14v-2.93Z"/>
    <path class="cls-8" d="M96.36,429.58c.46.45.69.95.69,1.51s-.23,1.09-.69,1.54c-.46.45-1.04.67-1.73.67s-1.31-.22-1.76-.67c-.45-.45-.68-.96-.68-1.54s.23-1.06.68-1.51c.45-.45,1.04-.67,1.76-.67s1.27.22,1.73.67ZM96.31,434.51v17.31h-3.41v-17.31h3.41Z"/>
    <path class="cls-8" d="M103.03,442.64v.06c0,1.84.62,3.39,1.87,4.64,1.25,1.25,2.73,1.88,4.43,1.88s3.17-.64,4.45-1.91c.18-.18.52-.57,1.02-1.19l3.22,1.14c-.48.81-1.04,1.52-1.67,2.14-1.92,1.93-4.26,2.9-7.03,2.9s-5.06-.95-6.96-2.85c-1.9-1.9-2.85-4.14-2.85-6.73s.95-4.87,2.85-6.76c1.9-1.89,4.22-2.84,6.96-2.84s5.11.96,7.03,2.88c1.65,1.67,2.48,3.89,2.48,6.67h-15.81ZM103.64,439.64h11.34c-.81-2.35-2.69-3.52-5.64-3.52s-4.87,1.17-5.7,3.52Z"/>
    <path class="cls-8" d="M125.85,443.18c-1.29-.71-2.17-1.3-2.65-1.78-.93-.93-1.4-2.01-1.4-3.22s.45-2.26,1.36-3.18,2.05-1.38,3.41-1.38,2.46.42,3.29,1.27c.86.86,1.29,1.8,1.29,2.82v.53l-3.07,1.25c-.19-1.43-.41-2.27-.65-2.52-.25-.25-.53-.38-.86-.38s-.64.15-.93.44c-.29.29-.44.68-.44,1.16s.16.88.49,1.21c.21.23.71.59,1.5,1.08,1.43.78,2.47,1.5,3.12,2.14,1.04,1.06,1.55,2.31,1.55,3.75s-.54,2.76-1.61,3.84c-1.07,1.09-2.42,1.63-4.03,1.63s-2.96-.54-4.04-1.63c-1.08-1.08-1.62-2.44-1.62-4.07l3.41-.85c0,1.47.23,2.43.7,2.9.47.47.98.7,1.55.7s1.09-.23,1.56-.7c.47-.47.71-1.07.71-1.82s-.25-1.33-.76-1.82c-.3-.29-.93-.74-1.89-1.36Z"/>
    <path class="cls-8" d="M152.72,437.09c-1.57.24-2.78.86-3.64,1.87-.86,1-1.29,2.26-1.29,3.78v9.09h-3.43v-17.31h3.43v2.46c.5-1.35,1.59-2.29,3.26-2.82l1.67,2.94Z"/>
    <path class="cls-8" d="M158.19,442.64v.06c0,1.84.62,3.39,1.87,4.64,1.25,1.25,2.73,1.88,4.43,1.88s3.17-.64,4.45-1.91c.18-.18.52-.57,1.02-1.19l3.22,1.14c-.48.81-1.04,1.52-1.67,2.14-1.92,1.93-4.26,2.9-7.03,2.9s-5.06-.95-6.96-2.85c-1.9-1.9-2.85-4.14-2.85-6.73s.95-4.87,2.85-6.76c1.9-1.89,4.22-2.84,6.96-2.84s5.11.96,7.03,2.88c1.65,1.67,2.48,3.89,2.48,6.67h-15.81ZM158.8,439.64h11.34c-.81-2.35-2.69-3.52-5.64-3.52s-4.87,1.17-5.7,3.52Z"/>
    <path class="cls-8" d="M179.99,438.91v12.91h-3.43v-17.31h3.43c.58-.63,1.78-.95,3.6-.95,2.18,0,3.94.67,5.28,2.01,1.34,1.34,2.02,2.97,2.05,4.9v11.34h-3.41v-11.19c0-1.17-.4-2.15-1.19-2.93-.8-.78-1.7-1.16-2.73-1.16s-1.9.37-2.67,1.1c-.44.44-.75.87-.93,1.27Z"/>
    <path class="cls-8" d="M203.96,433.09c2.76,0,5.09.95,6.97,2.84,1.88,1.89,2.82,4.15,2.82,6.76s-.94,4.83-2.82,6.73c-1.88,1.9-4.2,2.85-6.97,2.85s-5.06-.95-6.96-2.85c-1.9-1.9-2.85-4.14-2.85-6.73s.95-4.87,2.85-6.76c1.9-1.89,4.22-2.84,6.96-2.84ZM199.53,438.01c-1.25,1.26-1.87,2.82-1.87,4.68s.62,3.39,1.87,4.64c1.25,1.25,2.73,1.88,4.43,1.88s3.17-.62,4.42-1.88c1.26-1.25,1.88-2.8,1.88-4.64s-.63-3.41-1.88-4.68c-1.26-1.26-2.73-1.89-4.42-1.89s-3.18.63-4.43,1.89Z"/>
    <path class="cls-8" d="M224.26,452.05c-2.3,0-4.11-.67-5.44-2.01-1.33-1.34-2.02-2.98-2.05-4.92v-10.62h3.43v10.49c0,1.16.41,2.15,1.23,2.95.77.77,1.71,1.16,2.82,1.16,1.01,0,1.91-.39,2.71-1.18.79-.79,1.19-1.76,1.19-2.93v-10.49h3.43v10.62c-.04,1.94-.73,3.6-2.08,4.96-1.31,1.31-3.05,1.97-5.23,1.97Z"/>
    <path class="cls-8" d="M250.75,434.51l-7.73,17.31h-2.16l-7.65-17.31h3.77l4.96,11.53,5.04-11.53h3.77Z"/>
    <path class="cls-8" d="M255.24,442.64v.06c0,1.84.62,3.39,1.87,4.64,1.25,1.25,2.73,1.88,4.43,1.88s3.17-.64,4.45-1.91c.18-.18.52-.57,1.02-1.19l3.22,1.14c-.48.81-1.04,1.52-1.67,2.14-1.92,1.93-4.26,2.9-7.03,2.9s-5.06-.95-6.96-2.85c-1.9-1.9-2.85-4.14-2.85-6.73s.95-4.87,2.85-6.76c1.9-1.89,4.22-2.84,6.96-2.84s5.11.96,7.03,2.88c1.65,1.67,2.48,3.89,2.48,6.67h-15.81ZM255.84,439.64h11.34c-.81-2.35-2.69-3.52-5.64-3.52s-4.87,1.17-5.7,3.52Z"/>
    <path class="cls-8" d="M277.24,424.57v27.25h-3.43v-27.25h3.43Z"/>
    <path class="cls-8" d="M300.13,451.82h-3.43v-3.03c-1.35,2.32-3.41,3.48-6.17,3.48s-5.06-.95-6.96-2.85c-1.9-1.9-2.85-4.14-2.85-6.73s.95-4.87,2.85-6.76c1.9-1.89,4.22-2.84,6.96-2.84s4.82,1.15,6.17,3.45v-2.03h3.43v17.31ZM296.7,444.06v-2.76c-.24-1.25-.81-2.33-1.72-3.24-1.27-1.29-2.76-1.93-4.45-1.93s-3.18.63-4.43,1.89c-1.25,1.26-1.88,2.82-1.88,4.68s.63,3.39,1.88,4.64c1.25,1.25,2.73,1.88,4.43,1.88s3.17-.64,4.45-1.91c.91-.91,1.48-1.99,1.72-3.24Z"/>
    <path class="cls-8" d="M303.69,424.57h3.43v11.93c1.35-2.27,3.4-3.41,6.15-3.41s5.07.95,6.97,2.84c1.89,1.89,2.84,4.15,2.84,6.76s-.95,4.83-2.84,6.73c-1.89,1.9-4.22,2.85-6.97,2.85s-4.8-1.14-6.15-3.43v2.97h-3.43v-27.25ZM307.12,441.23v2.92c.23,1.21.81,2.29,1.76,3.22,1.24,1.22,2.7,1.84,4.39,1.84s3.16-.62,4.42-1.88c1.26-1.25,1.88-2.8,1.88-4.64s-.63-3.41-1.88-4.68c-1.26-1.26-2.73-1.89-4.42-1.89s-3.18.64-4.47,1.93c-.9.9-1.46,1.96-1.69,3.18Z"/>
    <path class="cls-8" d="M329.99,424.57v27.25h-3.43v-27.25h3.43Z"/>
    <path class="cls-8" d="M336.57,442.64v.06c0,1.84.62,3.39,1.87,4.64,1.25,1.25,2.73,1.88,4.43,1.88s3.17-.64,4.45-1.91c.18-.18.52-.57,1.02-1.19l3.22,1.14c-.48.81-1.04,1.52-1.67,2.14-1.92,1.93-4.26,2.9-7.03,2.9s-5.06-.95-6.96-2.85c-1.9-1.9-2.85-4.14-2.85-6.73s.95-4.87,2.85-6.76c1.9-1.89,4.22-2.84,6.96-2.84s5.11.96,7.03,2.88c1.65,1.67,2.48,3.89,2.48,6.67h-15.81ZM337.17,439.64h11.34c-.81-2.35-2.69-3.52-5.64-3.52s-4.87,1.17-5.7,3.52Z"/>
    <path class="cls-8" d="M359.38,443.18c-1.29-.71-2.17-1.3-2.65-1.78-.93-.93-1.4-2.01-1.4-3.22s.45-2.26,1.36-3.18,2.05-1.38,3.41-1.38,2.46.42,3.29,1.27c.86.86,1.29,1.8,1.29,2.82v.53l-3.07,1.25c-.19-1.43-.41-2.27-.65-2.52-.25-.25-.53-.38-.86-.38s-.64.15-.93.44c-.29.29-.44.68-.44,1.16s.16.88.49,1.21c.21.23.71.59,1.5,1.08,1.43.78,2.47,1.5,3.12,2.14,1.04,1.06,1.55,2.31,1.55,3.75s-.54,2.76-1.61,3.84c-1.07,1.09-2.42,1.63-4.03,1.63s-2.96-.54-4.04-1.63c-1.08-1.08-1.62-2.44-1.62-4.07l3.41-.85c0,1.47.23,2.43.7,2.9s.98.7,1.55.7,1.09-.23,1.56-.7c.47-.47.71-1.07.71-1.82s-.25-1.33-.76-1.82c-.3-.29-.93-.74-1.89-1.36Z"/>
    <path class="cls-8" d="M372.39,447.63l-3.71,7.71h-3.24l2.06-7.71h4.88Z"/>
    <path class="cls-8" d="M404.66,451.82h-3.43v-3.03c-1.35,2.32-3.41,3.48-6.17,3.48s-5.06-.95-6.96-2.85c-1.9-1.9-2.85-4.14-2.85-6.73s.95-4.87,2.85-6.76c1.9-1.89,4.22-2.84,6.96-2.84s4.82,1.15,6.17,3.45v-2.03h3.43v17.31ZM401.23,444.06v-2.76c-.24-1.25-.81-2.33-1.72-3.24-1.27-1.29-2.76-1.93-4.45-1.93s-3.18.63-4.43,1.89c-1.25,1.26-1.88,2.82-1.88,4.68s.63,3.39,1.88,4.64c1.25,1.25,2.73,1.88,4.43,1.88s3.17-.64,4.45-1.91c.91-.91,1.48-1.99,1.72-3.24Z"/>
    <path class="cls-8" d="M423.88,434.51l-7.73,17.31h-2.16l-7.65-17.31h3.77l4.96,11.53,5.04-11.53h3.77Z"/>
    <path class="cls-8" d="M428.37,442.64v.06c0,1.84.62,3.39,1.87,4.64,1.25,1.25,2.73,1.88,4.43,1.88s3.17-.64,4.45-1.91c.18-.18.52-.57,1.02-1.19l3.22,1.14c-.48.81-1.04,1.52-1.67,2.14-1.92,1.93-4.26,2.9-7.03,2.9s-5.06-.95-6.96-2.85c-1.9-1.9-2.85-4.14-2.85-6.73s.95-4.87,2.85-6.76c1.9-1.89,4.22-2.84,6.96-2.84s5.11.96,7.03,2.88c1.65,1.67,2.48,3.89,2.48,6.67h-15.81ZM428.97,439.64h11.34c-.81-2.35-2.69-3.52-5.64-3.52s-4.87,1.17-5.7,3.52Z"/>
    <path class="cls-8" d="M450.16,438.91v12.91h-3.43v-17.31h3.43c.58-.63,1.78-.95,3.6-.95,2.18,0,3.94.67,5.28,2.01,1.34,1.34,2.02,2.97,2.05,4.9v11.34h-3.41v-11.19c0-1.17-.4-2.15-1.19-2.93-.8-.78-1.7-1.16-2.73-1.16s-1.9.37-2.67,1.1c-.44.44-.75.87-.93,1.27Z"/>
    <path class="cls-8" d="M468.63,429.58c.46.45.69.95.69,1.51s-.23,1.09-.69,1.54c-.46.45-1.04.67-1.73.67s-1.31-.22-1.76-.67c-.45-.45-.68-.96-.68-1.54s.23-1.06.68-1.51c.45-.45,1.04-.67,1.76-.67s1.27.22,1.73.67ZM468.58,434.51v17.31h-3.41v-17.31h3.41Z"/>
    <path class="cls-8" d="M480.63,437.09c-1.57.24-2.78.86-3.64,1.87-.86,1-1.29,2.26-1.29,3.78v9.09h-3.43v-17.31h3.43v2.46c.5-1.35,1.59-2.29,3.26-2.82l1.67,2.94Z"/>
    <path class="cls-8" d="M512.04,451.82h-3.43v-3.03c-1.35,2.32-3.41,3.48-6.17,3.48s-5.06-.95-6.96-2.85c-1.9-1.9-2.85-4.14-2.85-6.73s.95-4.87,2.85-6.76c1.9-1.89,4.22-2.84,6.96-2.84s4.82,1.15,6.17,3.45v-11.97h3.43v27.25ZM508.61,444.06v-2.76c-.24-1.25-.81-2.33-1.72-3.24-1.27-1.29-2.76-1.93-4.45-1.93s-3.18.63-4.43,1.89c-1.25,1.26-1.88,2.82-1.88,4.68s.63,3.39,1.88,4.64c1.25,1.25,2.73,1.88,4.43,1.88s3.17-.64,4.45-1.91c.91-.91,1.48-1.99,1.72-3.24Z"/>
    <path class="cls-8" d="M522.87,452.05c-2.3,0-4.11-.67-5.44-2.01-1.33-1.34-2.02-2.98-2.05-4.92v-10.62h3.43v10.49c0,1.16.41,2.15,1.23,2.95.77.77,1.71,1.16,2.82,1.16,1.01,0,1.91-.39,2.71-1.18.79-.79,1.19-1.76,1.19-2.93v-10.49h3.43v10.62c-.04,1.94-.73,3.6-2.08,4.96-1.31,1.31-3.05,1.97-5.23,1.97Z"/>
    <path class="cls-8" d="M541.64,437.09c-1.57.24-2.78.86-3.64,1.87-.86,1-1.29,2.26-1.29,3.78v9.09h-3.43v-17.31h3.43v2.46c.5-1.35,1.59-2.29,3.26-2.82l1.67,2.94Z"/>
    <path class="cls-8" d="M563.43,451.82h-3.43v-3.03c-1.35,2.32-3.41,3.48-6.17,3.48s-5.06-.95-6.96-2.85c-1.9-1.9-2.85-4.14-2.85-6.73s.95-4.87,2.85-6.76c1.9-1.89,4.22-2.84,6.96-2.84s4.82,1.15,6.17,3.45v-2.03h3.43v17.31ZM560.01,444.06v-2.76c-.24-1.25-.81-2.33-1.72-3.24-1.27-1.29-2.76-1.93-4.45-1.93s-3.18.63-4.43,1.89c-1.25,1.26-1.88,2.82-1.88,4.68s.63,3.39,1.88,4.64c1.25,1.25,2.73,1.88,4.43,1.88s3.17-.64,4.45-1.91c.91-.91,1.48-1.99,1.72-3.24Z"/>
    <path class="cls-8" d="M566.99,424.57h3.43v11.93c1.35-2.27,3.4-3.41,6.15-3.41s5.07.95,6.97,2.84c1.89,1.89,2.84,4.15,2.84,6.76s-.95,4.83-2.84,6.73c-1.89,1.9-4.22,2.85-6.97,2.85s-4.8-1.14-6.15-3.43v2.97h-3.43v-27.25ZM570.42,441.23v2.92c.23,1.21.81,2.29,1.76,3.22,1.24,1.22,2.7,1.84,4.39,1.84s3.16-.62,4.42-1.88c1.26-1.25,1.88-2.8,1.88-4.64s-.63-3.41-1.88-4.68c-1.26-1.26-2.73-1.89-4.42-1.89s-3.18.64-4.47,1.93c-.9.9-1.46,1.96-1.69,3.18Z"/>
    <path class="cls-8" d="M593.29,424.57v27.25h-3.43v-27.25h3.43Z"/>
    <path class="cls-8" d="M599.87,442.64v.06c0,1.84.62,3.39,1.87,4.64,1.25,1.25,2.73,1.88,4.43,1.88s3.17-.64,4.45-1.91c.18-.18.52-.57,1.02-1.19l3.22,1.14c-.48.81-1.04,1.52-1.67,2.14-1.92,1.93-4.26,2.9-7.03,2.9s-5.06-.95-6.96-2.85c-1.9-1.9-2.85-4.14-2.85-6.73s.95-4.87,2.85-6.76c1.9-1.89,4.22-2.84,6.96-2.84s5.11.96,7.03,2.88c1.65,1.67,2.48,3.89,2.48,6.67h-15.81ZM600.47,439.64h11.34c-.81-2.35-2.69-3.52-5.64-3.52s-4.87,1.17-5.7,3.52Z"/>
  </g>
</svg>