<svg xmlns="http://www.w3.org/2000/svg" id="Calque_1" data-name="Calque 1" viewBox="0 0 377.31 448.33"><defs><style>      .cls-1 {        fill: #1ee5f8;      }      .cls-2 {        fill: #141649;      }    </style></defs><rect class="cls-1" x="95.24" y="109.23" width="171.79" height="210.32"></rect><path class="cls-2" d="m.04,57.35c0-.5.05-1,0-1.49-.26-2.11.84-3.01,2.75-3.54,5.47-1.51,10.89-3.16,16.35-4.73,12.63-3.62,25.26-7.25,37.9-10.83,14.08-3.99,28.18-7.9,42.25-11.91,15.79-4.5,31.56-9.08,47.35-13.61,11.96-3.43,23.95-6.73,35.87-10.3,4.07-1.22,7.86-1.27,11.94-.04,12.01,3.61,24.09,6.98,36.14,10.44,19.8,5.67,39.61,11.36,59.42,17,18.19,5.19,36.4,10.3,54.59,15.52,8.21,2.36,16.38,4.88,24.57,7.31,2.46.73,4.95,1.38,7.73,2.15,0,3.1,0,6.06,0,9.02,0,47.23-.02,94.47.01,141.7,0,6.96.63,13.93.33,20.87-.61,14.21.53,28.5-1.66,42.65-2.04,13.19-6.13,25.74-11.92,37.74-11.72,24.32-28.66,44.66-48.27,62.94-20.72,19.31-43.63,35.63-67.88,50.17-18.31,10.98-37.21,20.77-56.71,29.45-2.03.9-3.6.4-5.37-.38-14.87-6.53-29.36-13.83-43.52-21.8-23.84-13.41-46.62-28.42-67.5-46.13-8.12-6.89-15.97-14.15-23.41-21.76-13.25-13.57-24.91-28.42-33.96-45.2-7.04-13.05-12.26-26.74-14.96-41.39-1.41-7.69-2.01-15.39-2.03-23.17-.03-9.77-.01-144.25-.01-190.68Zm348.06,25.42c.13,0,.26,0,.39,0-.14-1.48-.44-2.97-.36-4.44.11-1.91-.86-2.63-2.5-3.09-3.62-1-7.21-2.12-10.81-3.18-12.6-3.72-25.2-7.44-37.8-11.15-20.06-5.9-40.11-11.79-60.18-17.67-15.19-4.45-30.4-8.85-45.57-13.38-1.91-.57-3.55-.64-5.47-.06-12.68,3.8-25.4,7.49-38.1,11.21-13.18,3.86-26.37,7.72-39.55,11.6-19.86,5.85-39.71,11.72-59.57,17.58-5.73,1.69-11.45,3.4-17.21,4.99-1.95.54-2.91,1.48-2.61,3.58.13.88.03,1.79.03,2.69,0,54.91.07,109.83,0,164.74-.02,16.23,3.46,31.59,10.36,46.22,7.3,15.46,17.36,29.03,28.93,41.52,14.62,15.79,31.04,29.49,48.56,41.92,21.84,15.49,44.96,28.76,69.11,40.27,1.87.89,3.51.95,5.39.05,19.18-9.14,37.75-19.38,55.53-31.01,17.88-11.69,34.85-24.54,50.38-39.27,15.2-14.42,28.65-30.21,38.45-48.85,8.25-15.69,12.67-32.31,12.63-50.15-.1-54.7-.04-109.4-.04-164.11Z"></path><path class="cls-2" d="m333.68,172.73c0,25.71.05,51.42-.02,77.13-.03,11.24-3.14,21.83-7.6,32.04-7.63,17.47-18.78,32.55-31.76,46.36-16.19,17.24-34.64,31.72-54.43,44.56-14.22,9.23-28.95,17.56-44.18,25-1.52.74-3.17,1.3-4.52,2.26-1.83,1.3-3.33.95-5.18.04-16.53-8.19-32.49-17.36-47.95-27.41-17.32-11.26-33.79-23.64-48.83-37.84-12.15-11.47-23.06-23.99-31.68-38.37-6.13-10.24-10.75-21.13-12.93-32.91-.78-4.19-1.09-8.51-1.1-12.78-.07-53.31-.05-106.62-.05-159.93,0-3.4.02-3.49,2.54-4.25,19.73-5.95,39.47-11.88,59.2-17.82,15.35-4.62,30.69-9.25,46.04-13.87,6.38-1.92,12.78-3.79,19.16-5.74,4.19-1.27,8.41-2.46,12.5-4,3.8-1.43,7.2-1.5,11.21-.06,9.35,3.36,18.97,6.01,28.49,8.89,20.01,6.04,40.03,12.06,60.05,18.05,14.58,4.37,29.19,8.67,43.77,13.05,1.81.54,3.52,1.37,5.31,1.99,1.52.53,1.81,1.73,1.83,3.09.07,4.38.17,8.75.17,13.13.02,23.12,0,46.24,0,69.35h-.04Zm-149.27,67.8c-7.47,26.95-15.13,52.9-22.12,79.03,3.21-2.35,90.05-114.11,90.68-116.52h-60.29c3.64-13.62,7.55-26.63,11.21-39.71,3.64-13.03,7.62-25.98,11.08-39.45-.81.29-1.06.3-1.16.42-29.73,38.07-59.46,76.16-89.17,114.24-.24.3-.37.7-.53,1.05-.04.08-.03.19,0,.29.02.09.08.18.3.61,19.67.06,39.53-.02,60,.03Z"></path></svg>