<svg xmlns="http://www.w3.org/2000/svg" id="Calque_1" data-name="Calque 1" viewBox="0 0 382.02 448.33"><defs><style>      .cls-1 {        fill: #1ee5f8;      }      .cls-2 {        fill: #141649;      }    </style></defs><g><path class="cls-1" d="m256.51,131.27H125.53c2.71-21.76,12.76-38.66,31.21-50.01,23.64-14.55,52.35-12.99,74.15,3.77,15.09,11.6,23.48,27.05,25.61,46.24Z"></path><path class="cls-1" d="m98.23,37.11c.77.44,2.48,1,3.63,2.13,8.83,8.68,17.56,17.46,26.29,26.24,2.65,2.67,2.77,6.47.38,8.93-2.51,2.59-6.27,2.56-9.08-.23-7.52-7.45-14.98-14.95-22.47-22.43-1.46-1.46-2.98-2.87-4.32-4.43-1.66-1.94-1.95-4.2-.89-6.53,1.07-2.34,2.98-3.48,6.47-3.68Z"></path><path class="cls-1" d="m291.33,43.56c-.81,1.46-1.33,3.2-2.46,4.35-8.62,8.79-17.35,17.48-26.08,26.15-2.95,2.93-6.66,3-9.22.34-2.42-2.52-2.23-6.32.53-9.09,8.69-8.72,17.4-17.42,26.12-26.12,2.01-2.01,4.6-2.55,6.95-1.53,2.29,1,3.71,3.16,4.16,5.91Z"></path><path class="cls-1" d="m77.89,134.3c-5.66,0-11.33.01-16.99,0-4.19-.01-6.88-2.41-6.91-6.1-.03-3.74,2.76-6.26,6.98-6.27,11.46-.01,22.92,0,34.38,0,2.87,0,5.02,1.23,6.18,3.9,1,2.31.51,5.28-1.53,6.72-1.37.97-3.25,1.61-4.92,1.67-5.72.2-11.46.08-17.19.08Z"></path><path class="cls-1" d="m197.24,24.1c0,5.66.01,11.33,0,16.99-.01,4.11-2.5,6.88-6.14,6.93-3.59.04-6.22-2.81-6.23-6.85-.02-11.46-.02-22.92,0-34.38,0-4.08,2.58-6.83,6.24-6.79,3.6.04,6.1,2.74,6.12,6.71.03,5.8,0,11.59,0,17.39h0Z"></path><path class="cls-1" d="m304.05,134.28c-5.93,0-11.86.06-17.79-.02-3.06-.04-5.37-1.97-5.96-4.67-.63-2.88.53-5.63,3.15-6.88,1.04-.5,2.29-.75,3.45-.76,11.46-.05,22.92-.04,34.37-.02,4.1,0,6.81,2.5,6.83,6.21.02,3.67-2.69,6.12-6.87,6.14-5.73.03-11.46,0-17.19,0h0Z"></path></g><g><path class="cls-2" d="m250.89,350.12c.74.11,1.12.31,1.48,1,.42.8-1.06,1.26-.04,2.04.35.27.07,1.36.11,2.07.05.83.17,1.65.22,2.47.05.77.12,1.54.08,2.31-.13,2.72-2.18,4.73-4.97,4.79-2.72.06-81.87.02-112.71.03-1.4,0-2.7-.2-3.82-1.13-1.27-1.05-1.98-2.38-1.88-4.02.17-3.01.4-6.02.63-9.02.25-3.24.53-6.48.77-9.72.47-6.19.93-12.38,1.39-18.57.27-3.66.51-7.31.8-10.97.43-5.54.88-11.08,1.31-16.62.28-3.65.53-7.31.81-10.97.43-5.66.88-11.32,1.31-16.98.09-1.24.14-2.48.2-3.72.18-3.72,2.15-5.66,5.83-5.66,32.32,0,64.63,0,96.95,0,.94,0,1.93.01,2.8.31,2.14.75,3.08,2.5,3.3,4.64.22,2.06.31,4.13.47,6.19.57,7.31,1.17,14.62,1.71,21.93.43,5.72.76,11.45,1.18,17.17.4,5.36.89,10.72,1.3,16.09.29,3.77.51,7.55.81,11.32.32,3.89.73,7.77,1.04,11.65.09,1.18.47,2.51-1.08,3.37Z"></path><path class="cls-2" d="m255.84,263.5c-.39-3.77,2.07-6.19,5.77-6.11,7.1.15,14.21.05,21.31.05,19.95,0,39.9,0,59.84,0,.41,0,.83,0,1.24,0,2.98.04,4.63,1.3,5.36,4.16,1.03,4.01,23.4,93.67,24.26,96.49,1.14,3.76-1.89,6.82-5.48,6.78-11.48-.14-22.97-.05-34.45-.05-21.49,0-42.97,0-64.46.01-1.72,0-3.38-.19-4.49-1.63-.62-.81-1.23-1.83-1.34-2.82-.47-4.17-7.2-93.3-7.58-96.89Z"></path><path class="cls-2" d="m63.35,364.82c-16.46,0-32.92,0-49.37.01-1.68,0-3.15-.35-4.35-1.6-.91-.95-1.47-2.06-1.37-3.35.11-1.41.3-2.83.66-4.19.74-2.79,1.87-5.5,2.37-8.32.9-5.06,2.49-9.94,3.66-14.93,1.41-6.05,2.99-12.05,4.5-18.08,1.32-5.28,2.65-10.55,3.98-15.83,2.45-9.75,4.91-19.5,7.36-29.25.62-2.47,1.24-4.93,1.88-7.39.86-3.29,2.37-4.45,5.84-4.45,13.44,0,26.88,0,40.32,0,13.85,0,27.71,0,41.56.01.93,0,1.94.02,2.79.35,2.02.77,3.1,2.35,3.07,4.53-.02,1.77-.19,3.54-.33,5.31-.5,6.72-.99,13.45-1.52,20.17-.41,5.19-.9,10.37-1.3,15.55-.43,5.66-.77,11.33-1.2,16.99-.25,3.36-.61,6.71-.88,10.07-.29,3.66-.53,7.31-.81,10.97-.48,6.31-.95,12.62-1.48,18.92-.2,2.4-2.24,4.27-4.77,4.48-.59.05-1.18.02-1.78.02-16.28,0-32.56,0-48.84,0Z"></path><path class="cls-2" d="m190.92,246.95c-15.51,0-31.01,0-46.52-.01-.94,0-1.92-.03-2.8-.29-2.08-.63-3.39-2.55-3.28-4.94.16-3.31,6.35-84.11,6.76-89.12.2-2.42,2.21-4.25,4.75-4.5.53-.05,1.06-.03,1.6-.03,26.34,0,52.67,0,79.01,0,.53,0,1.07-.02,1.6.02,2.76.2,4.74,2.14,4.95,4.91.41,5.48,6.22,81.16,6.48,84.7.09,1.18.23,2.35.3,3.53.21,3.45-1.81,5.7-5.26,5.73-4.85.04-9.71.01-14.56.01-11.01,0-22.02,0-33.02,0Z"></path><path class="cls-2" d="m199.53,398.48v32.91c.77.04,1.46.11,2.15.12,10.06,0,20.13.01,30.19,0,2.21,0,4.21.56,5.91,2.01,2.67,2.28,3.66,5.75,2.58,9-1.12,3.37-4.09,5.59-7.75,5.79-.35.02-.71,0-1.07,0-26.99,0-53.99,0-80.98.01-2.4,0-4.58-.51-6.4-2.13-2.62-2.35-3.52-5.82-2.37-9.06,1.15-3.25,4.17-5.52,7.69-5.6,3.85-.08,7.7-.03,11.54-.03,6.51,0,13.02,0,19.54,0,2.08,0,2.1-.02,2.1-2.07,0-9.65,0-19.3,0-28.95,0-.58-.07-1.15-.12-1.89-.93-.05-1.73-.12-2.54-.12-31.32,0-62.63,0-93.95-.02-2.69,0-5.39-.2-8.08-.26-1.06-.02-2.12.09-3.18.15-.23.01-.47.11-.7.11-12.47,0-24.95.01-37.42.02-9,0-18,0-26.99,0-2.23,0-4.35-.39-6.2-1.78-2.74-2.07-4.12-5.52-3.22-8.63,1-3.46,3.23-5.73,6.9-6.33.87-.14,1.77-.18,2.65-.18,26.88,0,53.75,0,80.63,0,3.48,0,6.95,0,10.43,0,44.32,0,88.64,0,132.97,0,30.96,0,61.92,0,92.88,0,4.13,0,8.25-.02,12.38-.02,11.23,0,22.46.02,33.69.02,2.72,0,5.1.74,7.02,2.81,4.16,4.49,2.17,11.92-3.73,13.59-1.18.34-2.45.51-3.67.51-16.58.03-33.15.04-49.73,0-3.01,0-6.02-.26-9.03-.25-4.12.01-8.23.25-12.35.25-33.03.02-66.07.01-99.1.01-.82,0-1.64,0-2.69,0Z"></path><path class="cls-2" d="m299.25,246.95c-12.9,0-25.8,0-38.71,0-.59,0-1.19.02-1.77-.03-2.29-.2-3.97-1.68-4.4-3.96-.26-1.39-.44-2.81-.54-4.22-.42-5.9-6.14-81.77-6.44-84.71-.37-3.69,2.39-6.01,5.62-6.01,21.13.04,42.26.02,63.38.03,2.93,0,4.62,1.25,5.43,4.12.95,3.36,22.01,87.18,22.3,88.56.73,3.5-1.35,6.1-4.93,6.2-1.72.05-3.43.01-5.15.01-11.6,0-23.2,0-34.8,0Z"></path><path class="cls-2" d="m130.26,148.08c3.12.77,4.62,2.65,4.43,5.87-.18,3.07-.47,6.13-.72,9.19-.3,3.71-.63,7.42-.92,11.13-.48,6.07-.95,12.14-1.41,18.21-.25,3.24-.48,6.49-.72,9.73-.47,6.13-.96,12.26-1.41,18.39-.42,5.78-.78,11.56-1.2,17.34-.12,1.65-.28,3.3-.56,4.93-.41,2.37-2.13,3.85-4.51,4.03-.47.04-.95.02-1.42.02-26.04,0-52.09,0-78.13.01-1.65,0-3.19-.18-4.41-1.43-1.3-1.34-1.76-2.92-1.31-4.73.79-3.22,1.58-6.43,2.39-9.64,2.84-11.29,5.69-22.58,8.54-33.88,2.74-10.84,5.48-21.67,8.21-32.5.92-3.67,1.81-7.35,2.72-11.02.17-.69.37-1.37.59-2.05.7-2.23,2.29-3.37,4.56-3.63.58-.07,64.29-.24,65.31,0Z"></path></g></svg>