<svg xmlns="http://www.w3.org/2000/svg" id="Calque_1" data-name="Calque 1" viewBox="0 0 398.32 406.13"><defs><style>      .cls-1 {        fill: #1ee5f8;      }      .cls-2 {        fill: #141649;      }    </style></defs><rect class="cls-1" x="88.96" y="191.07" width="147.14" height="182.22"></rect><g><rect class="cls-2" y="372.4" width="306.69" height="33.73"></rect><path class="cls-2" d="m247.05,0H62.07c-14.11,0-25.56,11.44-25.56,25.56v356.58h236.1V25.56c0-14.11-11.44-25.56-25.56-25.56Zm-103.79,356.76l8.35-63.98h-34.42l61.89-79.28-8.35,64.33,33.38-1.39-60.85,80.32Zm92.84-189.51H70.93V46.59h165.17v120.66Z"></path></g><path class="cls-2" d="m329.38,348.66c-25.85,0-46.88-21.03-46.88-46.88v-109.97c0-1.3-1.06-2.36-2.36-2.36h-32.43v-20.45h32.43c12.58,0,22.81,10.23,22.81,22.81v109.97c0,14.57,11.85,26.42,26.42,26.42s26.42-11.85,26.42-26.42v-156.11h20.45v156.11c0,25.85-21.03,46.88-46.88,46.88Z"></path><path class="cls-2" d="m329.97,74.87h68.35v34.93c0,12.51-10.16,22.68-22.68,22.68h-23c-12.51,0-22.68-10.16-22.68-22.68v-34.93h0Z"></path><path class="cls-2" d="m347.16,87.08c-2.9,0-5.25-2.35-5.25-5.25v-46.66c0-2.9,2.35-5.25,5.25-5.25s5.25,2.35,5.25,5.25v46.66c0,2.9-2.35,5.25-5.25,5.25Z"></path><path class="cls-2" d="m381.54,87.08c-2.9,0-5.25-2.35-5.25-5.25v-46.66c0-2.9,2.35-5.25,5.25-5.25s5.25,2.35,5.25,5.25v46.66c0,2.9-2.35,5.25-5.25,5.25Z"></path></svg>