<svg xmlns="http://www.w3.org/2000/svg" id="Calque_1" data-name="Calque 1" viewBox="0 0 450 446.82"><defs><style>      .cls-1 {        fill: #1ee5f8;      }      .cls-2 {        fill: #141649;      }    </style></defs><path class="cls-2" d="m285.95,170.16c7.8,0,14.15,6.35,14.15,14.15v201.34c0,7.8-6.35,14.15-14.15,14.15h-122.85c-7.8,0-14.15-6.35-14.15-14.15v-201.34c0-7.8,6.35-14.15,14.15-14.15h122.85m0-14.17h-122.85c-15.58,0-28.33,12.75-28.33,28.32v201.34c0,15.58,12.75,28.33,28.33,28.33h122.85c15.58,0,28.33-12.75,28.33-28.33v-201.34c0-15.58-12.75-28.32-28.33-28.32h0Z"></path><rect class="cls-2" x="162.07" y="348.45" width="124.9" height="37.54"></rect><path class="cls-1" d="m233.18,201.09l-48.55,65.19c-1.71,2.3-.07,5.56,2.79,5.56h23.41c2.11,0,3.74,1.86,3.45,3.96l-6.88,49.85c-.51,3.67,4.32,5.49,6.36,2.39l51.95-78.99c1.52-2.31-.14-5.39-2.91-5.39h-21.45c-1.98,0-3.56-1.65-3.48-3.63l1.59-36.7c.15-3.42-4.22-4.98-6.27-2.23Z"></path><rect class="cls-2" x="188.41" y="134.07" width="72.96" height="36.27" rx="17.43" ry="17.43"></rect><path class="cls-2" d="m410.99,201.68l17.19,14.29,21.83-26.94-39.01-32.76v-.29h-.35l-23.27-19.54V39.48h-95.68v16.61L225.11.18v-.18l-.11.09-.11-.09v.18L39.36,155.98h-.35v.29L0,189.04l21.83,26.94,17.19-14.29v212.29H12.08v32.84h426.84v-32.84h-27.93v-212.29Zm-344.57-22.79L225,47l158.58,131.89v235.08H66.42v-235.08Z"></path></svg>