<svg xmlns="http://www.w3.org/2000/svg" id="Calque_1" data-name="Calque 1" viewBox="0 0 449.96 362.1"><path d="m275.48,254.84c-.39,6.96-1.25,13.94-1.09,20.89.66,27.77,13.86,48.23,37.49,62.12,4.7,2.76,10.26,4.04,15.22,6.42,3.14,1.51,6.4,3.33,8.73,5.83,3.02,3.23,1.76,7.76-2.01,10.06-2.9,1.77-6.02,2.42-9.29,1.53-19.56-5.37-35.98-15.75-48.46-31.75-13.55-17.36-20.34-37.23-19.61-59.33.2-6.2,1.59-12.41,2.97-18.49,1.12-4.97,5.87-8.55,9.46-7.99,4.13.64,7.04,5.12,6.59,10.71Z" style="fill: #1ee5f8;"></path><path d="m130.57,245.16c3.72,18,2.56,36.77-4,53.95-7.25,18.95-19.98,34.09-39.32,45.29-5.82,3.37-12.26,5.68-18.5,8.28-1.77.74-3.82.99-5.76,1.08-5.8.29-9.6-1.85-10.36-5.57-.95-4.71,2.02-8.97,7.41-10.93,5.02-1.83,10.15-3.49,14.93-5.83,14.72-7.21,25.63-18.38,33.01-33,7.44-14.76,9.14-30.29,6.38-46.46-.33-1.93-.4-3.93-.39-5.89.03-5.6,2.49-8.94,6.76-9.38,4.36-.45,8.6,2.58,9.66,7.54.07.31.13.62.19.92Z" style="fill: #1ee5f8;"></path><path d="m191.49,257.33c2.26,14.91,1.4,30.2-3.16,44.58-6.66,20.98-19.78,37.59-40.01,49.91-7.2,4.38-15.64,6.73-23.59,9.84-1.41.55-3.24.48-4.78.19-3.49-.65-6.55-2.27-7.56-5.96-1.05-3.83,1.16-6.63,4.02-8.65,2-1.41,4.37-2.47,6.73-3.18,18.66-5.59,32.7-17.01,42.57-33.63,8.53-14.37,10.56-27.24,9.05-43.69-.15-1.58-.46-5.92-.51-7.49-.09-3.14-.31-6.4.37-9.41.7-3.09,3.08-5.45,6.43-5.67,3.29-.21,5.7,1.92,7.46,4.49,1.09,1.59,2.12,3.44,2.43,5.29.19,1.13.37,2.27.54,3.39Z" style="fill: #1ee5f8;"></path><path d="m318.01,282.32c-1.83-10.75-2.01-21.75-.27-32.51.12-.73.24-1.45.38-2.18.55-2.86,2.03-5.8,3.85-8.09,3.73-4.67,10.28-3.8,12.48,1.7,1.06,2.66,1.53,6.02.96,8.79-2.42,11.81-2.31,23.46,1.07,35.02,7.16,24.47,22.77,41.12,46.64,50.03,2.34.87,5.07,1.12,7.04,2.48,2.54,1.75,5.1,4,6.55,6.64,2.05,3.73-1.22,8.69-6.06,9.32-2.93.38-6.18.23-8.99-.65-29.13-9.13-49.03-28.15-59.99-56.62-1.75-4.55-2.87-9.22-3.68-13.93Z" style="fill: #1ee5f8;"></path><path d="m421.26,197.47c-.09-1.89-.34-3.3-.2-4.68,1.33-12.91-10.34-26.06-25.8-25.94-61.39.48-122.79.19-184.18.19-52.42,0-104.84.05-157.26-.04-9.83-.02-17.19,3.88-22.2,12.3-2.38,3.99-2.99,8.37-2.87,12.93.04,1.57,0,3.14,0,5.07-5.86.33-10.27-2.14-14.36-4.83C4.13,185.7-.06,175.76,0,163.63c.11-22.26.13-125.95.06-130.25-.15-8.46,3.43-15.08,9.97-20.39C19.7,5.15,30.96,1.56,43.08.28c3.91-.41,7.89-.24,11.84-.24,113.1,0,226.19,0,339.29-.03,9.35,0,18.61.22,27.56,3.44,11.01,3.97,21.24,9.1,26.09,20.54,1.6,3.77,1.61,8.33,1.76,12.56.26,7.1.34,94.02.35,126.33,0,12.5-4.53,22.72-15.09,29.79-3.87,2.59-8.11,4.49-13.61,4.8Zm-196.12-69.13c-59.59,0-119.18,0-178.77,0-3.05,0-6.11-.2-9.14,0-3.68.24-6.74,3.43-7.08,6.96-.31,3.31,1.85,6.56,5.53,7.5,2.39.61,371.26.81,375.74.61,4.89-.22,7.87-3.45,7.73-7.84-.14-4.49-3.19-7.11-8.26-7.12-20.28-.03-40.55-.09-60.82-.1-41.64-.02-83.28,0-124.92,0Zm-157.53-58.75h.01c0,7.18-.03,14.36.02,21.55.02,2.48-.22,5.33,3.19,5.89,2.56.42,4.09-1.97,4.21-6.2,0-.18,0-.36,0-.54,0-13.83,0-27.65-.01-41.48,0-1.25.23-2.78-.38-3.67-.8-1.17-2.35-2.51-3.56-2.5-1.11.01-2.58,1.55-3.17,2.77-.58,1.18-.29,2.81-.29,4.24-.02,6.64,0,13.29,0,19.93Zm-10.48.7h0c0-5.03.01-10.05,0-15.08-.01-3.05.06-6.11-.17-9.15-.14-1.85-.91-3.56-3.23-3.59-2.38-.03-3.59,1.35-3.94,3.56-.14.88-.09,1.79-.09,2.69,0,14-.02,28.01,0,42.01.01,4.46,1.37,6.69,3.98,6.27,3.54-.57,3.41-3.57,3.42-6.25.03-6.82.01-13.65.01-20.47Z" style="fill: #141649;"></path><path d="m224.69,174.98c56.38,0,112.76.04,169.14-.05,7.16-.01,12.63,2.56,16.05,8.78,3.6,6.54,3.63,13.56.46,20.15-3.23,6.71-9.04,9.73-16.64,9.71-29.63-.1-59.25.04-88.88-.07-8.71-.03-17.41-.79-26.12-.83-6.61-.03-13.23.81-19.84.82-67.33.07-134.66.02-202,.09-6.06,0-11.22-1.39-15.32-6.15-7.93-9.19-5.73-24.5,4.81-30.25,2.81-1.53,6.47-2.09,9.75-2.1,56.2-.12,112.4-.09,168.6-.09Zm.06,12.51c-40.21,0-80.43,0-120.64,0-1.8,0-3.6-.07-5.38.04-4.42.28-6.92,2.6-7.07,6.45-.15,3.84,2.16,6.69,6.34,7.29,2.65.38,5.37.27,8.06.27,66.38,0,132.77,0,199.15,0,13.82,0,27.65.03,41.47,0,1.96,0,3.99-.02,5.87-.49,4.57-1.14,6.46-5.95,4.37-10.18-1.7-3.46-4.76-3.36-7.83-3.36-18.65-.01-37.3-.01-55.95-.01-22.8,0-45.6,0-68.4,0Z" style="fill: #141649;"></path></svg>